<svg xmlns="http://www.w3.org/2000/svg" width="20.335" height="13.352" viewBox="0 0 20.335 13.352">
    <path fill="#ff8400" stroke="#ff8400" stroke-width="0.2px" d="M19.294 10.591h-3.1c.186-.062.373-.129.554-.2 1.188-.475 1.79-1.033 1.79-1.659 0-.962-.779-1.285-1.467-1.57a4.654 4.654 0 0 1-.849-.42.295.295 0 1 0-.334.486 5.093 5.093 0 0 0 .957.479c.7.292 1.1.484 1.1 1.025 0 .345-.517.75-1.419 1.111a14.688 14.688 0 0 1-2.848.75h-.966a4.284 4.284 0 0 0 1.431-2.158 5.931 5.931 0 0 1 1.689-2.712.892.892 0 0 0 .287-.767L17.8 3.7a.136.136 0 0 1 .157 0 1.205 1.205 0 0 0 1.084.194 1 1 0 0 0 .6-.549 1.085 1.085 0 0 0 0-.868 1.109 1.109 0 0 0-.887-.663 1.109 1.109 0 0 0-.371-1.045 1.085 1.085 0 0 0-.827-.263 1 1 0 0 0-.7.408 1.205 1.205 0 0 0-.14 1.092.136.136 0 0 1-.049.148l-1.7 1.231a.892.892 0 0 0-.818.044 5.931 5.931 0 0 1-3.093.8 4.25 4.25 0 0 0-2.581.784 3.771 3.771 0 0 0-1.5 2.364 3.393 3.393 0 0 0 .593 2.645 3.337 3.337 0 0 0 .532.57H4.368C2.1 10.134 1 9 1 7.132a5.872 5.872 0 0 1 1.74-4.025 6.256 6.256 0 0 1 4.507-1.9 9.241 9.241 0 0 1 5.58 1.958.295.295 0 0 0 .364-.465A9.842 9.842 0 0 0 7.247.616a6.841 6.841 0 0 0-4.929 2.079A6.466 6.466 0 0 0 .405 7.132a3.607 3.607 0 0 0 2.1 3.459H.842a.842.842 0 0 0 0 1.684h1.07a.04.04 0 0 1 .038.025l.187.458a1.429 1.429 0 0 0 1.328.892h13.206A1.429 1.429 0 0 0 18 12.758l.187-.458a.041.041 0 0 1 .038-.025h1.07a.842.842 0 0 0 0-1.684zm-2.283-7.96a.727.727 0 0 0 .268-.793.661.661 0 0 1 .049-.575.414.414 0 0 1 .293-.171.494.494 0 0 1 .379.123.511.511 0 0 1 .159.545.492.492 0 0 0 .467.637.511.511 0 0 1 .472.316.494.494 0 0 1 .005.395.414.414 0 0 1-.251.229.662.662 0 0 1-.564-.125.727.727 0 0 0-.837.019l-1.597 1.184L15.4 3.8zM8.048 9.672a2.808 2.808 0 0 1-.488-2.19 3.183 3.183 0 0 1 1.263-1.994 3.682 3.682 0 0 1 2.236-.67 6.491 6.491 0 0 0 3.384-.879.291.291 0 0 1 .335.018.242.242 0 0 1 .037.043l.674.919a.23.23 0 0 1 .025.043.291.291 0 0 1-.082.327 6.49 6.49 0 0 0-1.852 2.966 3.683 3.683 0 0 1-1.309 1.933 3.291 3.291 0 0 1-.733.406H9.222a2.774 2.774 0 0 1-1.174-.919zm11.246 2.013h-13a.295.295 0 1 0 0 .59h11.265l-.106.261a.842.842 0 0 1-.782.525H3.464a.842.842 0 0 1-.782-.525l-.106-.261h2.342a.295.295 0 1 0 0-.59H.842a.252.252 0 0 1 0-.5h18.452a.252.252 0 0 1 0 .5zm0 0" transform="translate(.1 -.398)"/>
</svg>
