<svg xmlns="http://www.w3.org/2000/svg" width="15.366" height="15.276" viewBox="0 0 15.366 15.276">
    <defs>
        <style>
            .cls-1{fill:#ff8400;stroke:#ff8400;stroke-width:.3px}
        </style>
    </defs>
    <g id="_01_X_factor_icon_" transform="translate(-890.393 -439.278)">
        <path id="Path_3207" d="M65.692 12.321l.883-.056a2.079 2.079 0 0 0 1.55-.9l.7-1.024a4.133 4.133 0 0 0 .666-3.041.933.933 0 0 0-.875-.776 4.132 4.132 0 0 0-2.931 1.021l-.933.816a2.08 2.08 0 0 0-.712 1.647l.05.883a1.243 1.243 0 0 1-.346.932l-7.291 7.49a1.059 1.059 0 0 0-.284.786 1.218 1.218 0 0 0 1.231 1.192h.1a1.06 1.06 0 0 0 .748-.377l6.56-8.134a1.244 1.244 0 0 1 .884-.455zm-1.234.172L57.9 20.626a.613.613 0 0 1-.434.212.769.769 0 0 1-.845-.749.612.612 0 0 1 .157-.455l7.29-7.489a1.7 1.7 0 0 0 .472-1.271l-.05-.881a1.631 1.631 0 0 1 .558-1.293l.933-.816a3.686 3.686 0 0 1 2.613-.911.482.482 0 0 1 .452.4 3.684 3.684 0 0 1-.591 2.7l-.7 1.024a1.631 1.631 0 0 1-1.213.709l-.881.056a1.7 1.7 0 0 0-1.206.622zm0 0" class="cls-1" transform="translate(836.054 433.112)"/>
        <path id="Path_3208" d="M295.8 291.411l-4.888-4.452a.225.225 0 1 0-.3.333l4.887 4.451a.613.613 0 0 1 .186.446.77.77 0 0 1-.8.8.613.613 0 0 1-.445-.185l-4.356-4.782a.225.225 0 1 0-.333.3l4.357 4.783a1.059 1.059 0 0 0 .768.33h.024a1.22 1.22 0 0 0 1.234-1.258 1.06 1.06 0 0 0-.331-.769zm0 0" class="cls-1" transform="translate(609.389 160.966)"/>
        <path id="Path_3209" d="M2.719 6.431a2.086 2.086 0 0 0 1.364.552h.885a1.243 1.243 0 0 1 .909.4l.39.428a.225.225 0 1 0 .333-.3l-.39-.428a1.7 1.7 0 0 0-1.24-.548h-.882a1.637 1.637 0 0 1-1.057-.423L.47 3.061a.078.078 0 0 1 .115-.105L2.919 5.29a.592.592 0 0 0 .837 0l.274-.274.487-.487.274-.274a.592.592 0 0 0 0-.837L2.457 1.083a.078.078 0 0 1 .105-.114l3.049 2.564a1.636 1.636 0 0 1 .423 1.057v.883a1.7 1.7 0 0 0 .548 1.241l.418.38a.225.225 0 1 0 .3-.333l-.417-.38a1.244 1.244 0 0 1-.4-.91v-.885a2.086 2.086 0 0 0-.552-1.364L5.912 3.2 2.852.624a.525.525 0 0 0-.714.031c-.206.206.69 1.076.9 1.282l1.757 1.83c.055.055-.264.114-.319.169l-.115.115-2.6-2.6a.225.225 0 0 0-.319.319l2.6 2.6-.169.168-1.021-.771a18.327 18.327 0 0 0-1.9-1.83.225.225 0 0 0 0 .319l2.6 2.6-.115.115c-.055.055-.149.374-.2.319L1.438 3.533c-.1-.1-.767-1.05-.908-1.05a.528.528 0 0 0-.4.869L2.7 6.411l.02.021zm0 0" class="cls-1" transform="translate(890.573 438.959)"/>
    </g>
</svg>
