<svg xmlns="http://www.w3.org/2000/svg" width="21.531" height="16" viewBox="0 0 21.531 16">
    <g>
        <g>
            <path fill="#ff8400" d="M20.381 75.143h-.171a2.108 2.108 0 0 0 .721-.73 1.45 1.45 0 0 0-.49-1.883 3.077 3.077 0 0 0-5.041-3.309l-1.457-2.089a.315.315 0 0 0-.465-.058 3.938 3.938 0 0 0-.949 1.219 2.063 2.063 0 0 0-.867.321 5.361 5.361 0 0 0-.488-1.818.315.315 0 0 0-.56.291 5.637 5.637 0 0 1 .456 2.14.315.315 0 0 0 .539.221 2.4 2.4 0 0 1 .644-.437 3.934 3.934 0 0 0 .205 2.68l-2.83 1.267c-.643-1.114-1.311-1.64-1.986-1.564a1.378 1.378 0 0 0-.468.131c-.508-.81-.706-1.441-.531-1.706.066-.1.266-.4.871-.266a2.413 2.413 0 0 1 .666.273.315.315 0 0 0 .478-.333 6.2 6.2 0 0 1-.117-.916v-.027a2.992 2.992 0 0 1 .33-1.769.9.9 0 0 1 .668-.38 1.072 1.072 0 0 1 .254 0 .315.315 0 0 0 .081-.626 1.7 1.7 0 0 0-.4 0 1.517 1.517 0 0 0-1.111.639 2.832 2.832 0 0 0-.447 1.5 3.078 3.078 0 0 0-4.247 4.263 2.038 2.038 0 0 0 .006.511 3.517 3.517 0 0 0-2.288-.03 1.37 1.37 0 0 0-.745.885 1.453 1.453 0 0 0 .542 1.6H1.15A1.152 1.152 0 0 0 0 76.293v.068a1.152 1.152 0 0 0 1.15 1.15h1.043l2.529 2.465a1.074 1.074 0 0 0-.3.741v.009A1.046 1.046 0 0 0 5.5 81.762h10.526a1.046 1.046 0 0 0 1.074-1.035v-.009a1.074 1.074 0 0 0-.3-.741l2.529-2.465h1.043a1.152 1.152 0 0 0 1.15-1.15v-.068a1.152 1.152 0 0 0-1.15-1.15zm0-1.032a2.783 2.783 0 0 1-1.652 1 .314.314 0 0 0-.078.035h-5.867a3.921 3.921 0 0 0 .562-3.074.83.83 0 0 1 .614-.264c.31.035.374.157.4.2.133.251-.049.762-.158.97a.315.315 0 0 0 .525.345 6.833 6.833 0 0 1 1.864-1.679.315.315 0 0 0 .069-.031.525.525 0 0 1 .395-.043c.156.067.361.21.341.673a2.08 2.08 0 0 1-.13.606.315.315 0 0 0 .412.412 3.65 3.65 0 0 1 2.346-.238.815.815 0 0 1 .358 1.094zm-9.66.806l-.282-.63a.315.315 0 0 0-.576.258l.268.6h-.998l.116-.3a.315.315 0 0 0-.589-.225l-.2.528H6.99c-.005-.007-.13-.158-.183-.231l5.933-2.655a3.353 3.353 0 0 1-.694 2.822.315.315 0 0 0-.041.064h-1.277a.314.314 0 0 0-.012-.226zm5.779-4.128a1.241 1.241 0 1 1 1.86 1.574.318.318 0 0 0-.032.031c-.115.027-.223.055-.321.083a1.307 1.307 0 0 0-.7-1.493 1.012 1.012 0 0 0-.686-.027zm1.081-1.839a2.45 2.45 0 0 1 2.444 2.45 2.421 2.421 0 0 1-.175.91 2.8 2.8 0 0 0-.614-.041 1.872 1.872 0 0 0-3.126-2.031l-.34-.487a2.442 2.442 0 0 1 1.808-.801zm-3.942-1.15l2.393 3.43a5.339 5.339 0 0 0-.761.591c-.086.079-.17.158-.25.237a1.031 1.031 0 0 0-.107-.344 1.054 1.054 0 0 0-.883-.53 1.342 1.342 0 0 0-.967.308 3.323 3.323 0 0 1 .576-3.691zM6.73 72a1.062 1.062 0 0 0-.075.274c-.08-.079-.164-.158-.25-.237a4.074 4.074 0 0 0-1.163-.8l-.01-.016a1.241 1.241 0 0 1 1.018-1.95h.032a1.407 1.407 0 0 0-.162.2c-.35.529-.151 1.356.61 2.523zM3.8 70.508a2.447 2.447 0 0 1 4.12-1.787c.008.106.017.207.028.3a2.21 2.21 0 0 0-.76-.131 1.872 1.872 0 0 0-2.7 2.268.881.881 0 0 0-.119.041 1.187 1.187 0 0 0-.383.258 2.442 2.442 0 0 1-.191-.948zM2.374 75.12c-.909-.38-1.289-.849-1.128-1.393a.753.753 0 0 1 .411-.494A3.66 3.66 0 0 1 4 73.469a.316.316 0 0 0 .412-.411 2.079 2.079 0 0 1-.131-.607c-.02-.463.185-.606.341-.673.45-.194 1.641.894 2.328 1.753a.315.315 0 0 0 .525-.344c-.109-.208-.292-.719-.159-.97.021-.04.086-.162.4-.2.379-.043.859.39 1.336 1.2l-2.839 1.27a.315.315 0 0 0-.144.446c.041.072.086.142.132.211H2.419a.308.308 0 0 0-.044-.023zm14.1 5.607a.415.415 0 0 1-.447.405H5.5a.415.415 0 0 1-.447-.405v-.009a.448.448 0 0 1 .447-.448h10.526a.448.448 0 0 1 .447.447zm4.426-4.366a.52.52 0 0 1-.52.52H6.034a.315.315 0 1 0 0 .631h12.4L16.25 79.64H5.281L3.1 77.512h1.672a.315.315 0 1 0 0-.631H1.15a.52.52 0 0 1-.52-.52v-.068a.52.52 0 0 1 .52-.52h19.23a.52.52 0 0 1 .52.52z" transform="translate(-658.224 -439) translate(658.224 373.238)"/>
            <path fill="#fff" d="M-7335-1007h-16c0-2.758 3.59-5 8-5s8 2.243 8 5z" transform="translate(-658.224 -439) rotate(-1 80025.256 -459324.15)"/>
        </g>
    </g>
</svg>
