<svg xmlns="http://www.w3.org/2000/svg" width="10.1" height="13.1" viewBox="0 0 10.1 13.1">
    <path fill="none" stroke="#ff8400" stroke-linecap="square" stroke-width="1.1px" d="M4.031 1.266A.538.538 0 0 0 4.5 1.5a.538.538 0 0 0 .469-.234l1.57-2.25q1.172-1.688 1.547-2.274a6.6 6.6 0 0 0 .727-1.418A4.266 4.266 0 0 0 9-6a4.343 4.343 0 0 0-.609-2.25A4.586 4.586 0 0 0 6.75-9.891 4.343 4.343 0 0 0 4.5-10.5a4.343 4.343 0 0 0-2.25.609A4.586 4.586 0 0 0 .609-8.25 4.343 4.343 0 0 0 0-6a4.266 4.266 0 0 0 .188 1.324 6.6 6.6 0 0 0 .726 1.418q.375.586 1.547 2.273.961 1.36 1.57 2.251zM4.5-4.125a1.806 1.806 0 0 1-1.324-.551A1.805 1.805 0 0 1 2.625-6a1.806 1.806 0 0 1 .551-1.324A1.805 1.805 0 0 1 4.5-7.875a1.806 1.806 0 0 1 1.324.551A1.805 1.805 0 0 1 6.375-6a1.806 1.806 0 0 1-.551 1.324 1.806 1.806 0 0 1-1.324.551z" transform="translate(.55 11.05)"/>
</svg>
